<mxfile host="app.diagrams.net" agent="Mozilla/5.0 (Windows NT 10.0; Win64; x64) AppleWebKit/537.36 (KHTML, like Gecko) Chrome/136.0.0.0 Safari/537.36 Edg/136.0.0.0" version="26.2.15">
  <diagram id="C5RBs43oDa-KdzZeNtuy" name="Page-1">
    <mxGraphModel dx="2245" dy="760" grid="1" gridSize="10" guides="1" tooltips="1" connect="1" arrows="1" fold="1" page="1" pageScale="1" pageWidth="827" pageHeight="1169" math="0" shadow="0">
      <root>
        <mxCell id="WIyWlLk6GJQsqaUBKTNV-0" />
        <mxCell id="WIyWlLk6GJQsqaUBKTNV-1" parent="WIyWlLk6GJQsqaUBKTNV-0" />
        <mxCell id="9z_CBcMktJ3dAt4Q67Kb-53" value="CRM Admin" style="swimlane;whiteSpace=wrap;html=1;" vertex="1" parent="WIyWlLk6GJQsqaUBKTNV-1">
          <mxGeometry x="30" y="230" width="360" height="570" as="geometry" />
        </mxCell>
        <mxCell id="9z_CBcMktJ3dAt4Q67Kb-67" style="edgeStyle=orthogonalEdgeStyle;rounded=0;orthogonalLoop=1;jettySize=auto;html=1;exitX=0.5;exitY=1;exitDx=0;exitDy=0;" edge="1" parent="9z_CBcMktJ3dAt4Q67Kb-53" source="9z_CBcMktJ3dAt4Q67Kb-57" target="9z_CBcMktJ3dAt4Q67Kb-59">
          <mxGeometry relative="1" as="geometry" />
        </mxCell>
        <mxCell id="9z_CBcMktJ3dAt4Q67Kb-57" value="Request tạo khách hàng mới" style="ellipse;whiteSpace=wrap;html=1;" vertex="1" parent="9z_CBcMktJ3dAt4Q67Kb-53">
          <mxGeometry x="120" y="40" width="120" height="80" as="geometry" />
        </mxCell>
        <mxCell id="9z_CBcMktJ3dAt4Q67Kb-69" style="edgeStyle=orthogonalEdgeStyle;rounded=0;orthogonalLoop=1;jettySize=auto;html=1;exitX=0.5;exitY=1;exitDx=0;exitDy=0;entryX=0.5;entryY=0;entryDx=0;entryDy=0;" edge="1" parent="9z_CBcMktJ3dAt4Q67Kb-53" source="9z_CBcMktJ3dAt4Q67Kb-58" target="9z_CBcMktJ3dAt4Q67Kb-60">
          <mxGeometry relative="1" as="geometry" />
        </mxCell>
        <mxCell id="9z_CBcMktJ3dAt4Q67Kb-58" value="Chuyển sang trạng thái Approving&amp;nbsp;" style="whiteSpace=wrap;html=1;rounded=1;" vertex="1" parent="9z_CBcMktJ3dAt4Q67Kb-53">
          <mxGeometry x="120" y="249" width="120" height="60" as="geometry" />
        </mxCell>
        <mxCell id="9z_CBcMktJ3dAt4Q67Kb-68" style="edgeStyle=orthogonalEdgeStyle;rounded=0;orthogonalLoop=1;jettySize=auto;html=1;exitX=0.5;exitY=1;exitDx=0;exitDy=0;entryX=0.5;entryY=0;entryDx=0;entryDy=0;" edge="1" parent="9z_CBcMktJ3dAt4Q67Kb-53" source="9z_CBcMktJ3dAt4Q67Kb-59" target="9z_CBcMktJ3dAt4Q67Kb-58">
          <mxGeometry relative="1" as="geometry" />
        </mxCell>
        <mxCell id="9z_CBcMktJ3dAt4Q67Kb-59" value="Nhập thông tin cơ bản và các giấy tờ cần thiết cho khách hàng" style="whiteSpace=wrap;html=1;rounded=1;" vertex="1" parent="9z_CBcMktJ3dAt4Q67Kb-53">
          <mxGeometry x="120" y="160" width="120" height="60" as="geometry" />
        </mxCell>
        <mxCell id="9z_CBcMktJ3dAt4Q67Kb-60" value="Send khách hàng qua SAP" style="whiteSpace=wrap;html=1;rounded=1;" vertex="1" parent="9z_CBcMktJ3dAt4Q67Kb-53">
          <mxGeometry x="120" y="350" width="120" height="60" as="geometry" />
        </mxCell>
        <mxCell id="9z_CBcMktJ3dAt4Q67Kb-61" value="Kiểm tra đầy đủ các thông tin: Code nhà meta Payment Term / Payment Method / Credit Limit. Sau đó Approved khách hàng" style="ellipse;whiteSpace=wrap;html=1;rounded=1;" vertex="1" parent="9z_CBcMktJ3dAt4Q67Kb-53">
          <mxGeometry x="40" y="430" width="278.75" height="120" as="geometry" />
        </mxCell>
        <mxCell id="9z_CBcMktJ3dAt4Q67Kb-55" value="Finnace" style="swimlane;whiteSpace=wrap;html=1;startSize=23;" vertex="1" parent="WIyWlLk6GJQsqaUBKTNV-1">
          <mxGeometry x="590" y="230" width="200" height="570" as="geometry" />
        </mxCell>
        <mxCell id="9z_CBcMktJ3dAt4Q67Kb-63" value="Nhập thông tin Payment Term / Payment Method / Credit Limit" style="whiteSpace=wrap;html=1;rounded=1;fillColor=#47FF6C;" vertex="1" parent="9z_CBcMktJ3dAt4Q67Kb-55">
          <mxGeometry x="30" y="350" width="120" height="60" as="geometry" />
        </mxCell>
        <mxCell id="9z_CBcMktJ3dAt4Q67Kb-56" value="Meta" style="swimlane;whiteSpace=wrap;html=1;" vertex="1" parent="WIyWlLk6GJQsqaUBKTNV-1">
          <mxGeometry x="-170" y="230" width="200" height="570" as="geometry" />
        </mxCell>
        <mxCell id="9z_CBcMktJ3dAt4Q67Kb-64" value="Request Meta tạo code mới" style="whiteSpace=wrap;html=1;rounded=1;" vertex="1" parent="9z_CBcMktJ3dAt4Q67Kb-56">
          <mxGeometry x="20" y="350" width="120" height="60" as="geometry" />
        </mxCell>
        <mxCell id="9z_CBcMktJ3dAt4Q67Kb-73" style="edgeStyle=orthogonalEdgeStyle;rounded=0;orthogonalLoop=1;jettySize=auto;html=1;exitX=0.5;exitY=1;exitDx=0;exitDy=0;entryX=0;entryY=0.5;entryDx=0;entryDy=0;" edge="1" parent="WIyWlLk6GJQsqaUBKTNV-1" source="9z_CBcMktJ3dAt4Q67Kb-64" target="9z_CBcMktJ3dAt4Q67Kb-61">
          <mxGeometry relative="1" as="geometry" />
        </mxCell>
        <mxCell id="9z_CBcMktJ3dAt4Q67Kb-75" style="edgeStyle=orthogonalEdgeStyle;rounded=0;orthogonalLoop=1;jettySize=auto;html=1;exitX=0.5;exitY=1;exitDx=0;exitDy=0;entryX=1;entryY=0.5;entryDx=0;entryDy=0;" edge="1" parent="WIyWlLk6GJQsqaUBKTNV-1" source="9z_CBcMktJ3dAt4Q67Kb-63" target="9z_CBcMktJ3dAt4Q67Kb-61">
          <mxGeometry relative="1" as="geometry" />
        </mxCell>
        <mxCell id="9z_CBcMktJ3dAt4Q67Kb-54" value="Trade" style="swimlane;whiteSpace=wrap;html=1;" vertex="1" parent="WIyWlLk6GJQsqaUBKTNV-1">
          <mxGeometry x="390" y="230" width="200" height="570" as="geometry" />
        </mxCell>
        <mxCell id="9z_CBcMktJ3dAt4Q67Kb-62" value="Nhập thông tin contract" style="whiteSpace=wrap;html=1;rounded=1;" vertex="1" parent="9z_CBcMktJ3dAt4Q67Kb-54">
          <mxGeometry x="30" y="350" width="120" height="60" as="geometry" />
        </mxCell>
        <mxCell id="9z_CBcMktJ3dAt4Q67Kb-71" style="edgeStyle=orthogonalEdgeStyle;rounded=0;orthogonalLoop=1;jettySize=auto;html=1;exitX=0.5;exitY=1;exitDx=0;exitDy=0;" edge="1" parent="9z_CBcMktJ3dAt4Q67Kb-54" source="9z_CBcMktJ3dAt4Q67Kb-62" target="9z_CBcMktJ3dAt4Q67Kb-62">
          <mxGeometry relative="1" as="geometry" />
        </mxCell>
        <mxCell id="9z_CBcMktJ3dAt4Q67Kb-74" style="edgeStyle=orthogonalEdgeStyle;rounded=0;orthogonalLoop=1;jettySize=auto;html=1;exitX=1;exitY=0.5;exitDx=0;exitDy=0;entryX=0;entryY=0.5;entryDx=0;entryDy=0;" edge="1" parent="WIyWlLk6GJQsqaUBKTNV-1" source="9z_CBcMktJ3dAt4Q67Kb-62" target="9z_CBcMktJ3dAt4Q67Kb-63">
          <mxGeometry relative="1" as="geometry" />
        </mxCell>
        <mxCell id="9z_CBcMktJ3dAt4Q67Kb-77" style="edgeStyle=orthogonalEdgeStyle;rounded=0;orthogonalLoop=1;jettySize=auto;html=1;exitX=1;exitY=0.5;exitDx=0;exitDy=0;entryX=0;entryY=0.5;entryDx=0;entryDy=0;" edge="1" parent="WIyWlLk6GJQsqaUBKTNV-1" source="9z_CBcMktJ3dAt4Q67Kb-60" target="9z_CBcMktJ3dAt4Q67Kb-62">
          <mxGeometry relative="1" as="geometry" />
        </mxCell>
        <mxCell id="9z_CBcMktJ3dAt4Q67Kb-78" style="edgeStyle=orthogonalEdgeStyle;rounded=0;orthogonalLoop=1;jettySize=auto;html=1;exitX=0;exitY=0.5;exitDx=0;exitDy=0;entryX=1;entryY=0.5;entryDx=0;entryDy=0;" edge="1" parent="WIyWlLk6GJQsqaUBKTNV-1" source="9z_CBcMktJ3dAt4Q67Kb-60" target="9z_CBcMktJ3dAt4Q67Kb-64">
          <mxGeometry relative="1" as="geometry" />
        </mxCell>
      </root>
    </mxGraphModel>
  </diagram>
</mxfile>
